<svg id="Capa_1" enable-background="new 0 0 512 512" height="512" viewBox="0 0 512 512" width="512" xmlns="http://www.w3.org/2000/svg"><path d="m452 20h-392c-33.084 0-60 26.916-60 60v332c0 44.112 35.888 80 80 80h352c44.112 0 80-35.888 80-80 0-11.046-8.954-20-20-20s-20 8.954-20 20c0 22.056-17.944 40-40 40h-352c-22.056 0-40-17.944-40-40v-271h432v171c0 11.046 8.954 20 20 20s20-8.954 20-20v-232c0-33.084-26.916-60-60-60zm-81 40c11.028 0 20 8.972 20 20s-8.972 20-20 20-20-8.972-20-20 8.972-20 20-20zm100 20c0 11.028-8.972 20-20 20s-20-8.972-20-20 8.972-20 20-20 20 8.972 20 20zm-431 0c0-11.028 8.972-20 20-20h254.44c-2.22 6.26-3.44 12.989-3.44 20 0 7.386 1.349 14.46 3.801 21h-274.801zm195 297c0 11.046-8.954 20-20 20h-116c-11.046 0-20-8.954-20-20s8.954-20 20-20h116c11.046 0 20 8.954 20 20zm0-160c0 11.046-8.954 20-20 20h-116c-11.046 0-20-8.954-20-20s8.954-20 20-20h116c11.046 0 20 8.954 20 20zm0 80c0 11.046-8.954 20-20 20h-116c-11.046 0-20-8.954-20-20s8.954-20 20-20h116c11.046 0 20 8.954 20 20zm198-80c0 11.046-8.954 20-20 20h-116c-11.046 0-20-8.954-20-20s8.954-20 20-20h116c11.046 0 20 8.954 20 20zm-20 100h-116c-11.046 0-20-8.954-20-20s8.954-20 20-20h116c11.046 0 20 8.954 20 20s-8.954 20-20 20zm-40 40c11.046 0 20 8.954 20 20s-8.954 20-20 20h-76c-11.046 0-20-8.954-20-20s8.954-20 20-20z"/></svg>